<svg width="24" height="24" viewBox="0 0 24 24" fill="none" xmlns="http://www.w3.org/2000/svg">
<path d="M11.5 12.2439C14.5376 12.2439 17 9.78146 17 6.7439C17 3.70633 14.5376 1.2439 11.5 1.2439C8.46243 1.2439 6 3.70633 6 6.7439C6 9.78146 8.46243 12.2439 11.5 12.2439Z" fill="#E20074"/>
<path fill-rule="evenodd" clip-rule="evenodd" d="M12.925 21.756C11.886 20.64 11.25 19.144 11.25 17.5C11.25 15.817 11.917 14.288 13.001 13.164C12.511 13.126 12.01 13.106 11.5 13.106C8.178 13.106 5.237 13.937 3.411 15.182C2.018 16.132 1.25 17.339 1.25 18.606V20.056C1.25 20.507 1.429 20.94 1.748 21.258C2.067 21.577 2.499 21.756 2.95 21.756H12.925Z" fill="#E20074"/>
<path fill-rule="evenodd" clip-rule="evenodd" d="M17.5 12.25C14.602 12.25 12.25 14.602 12.25 17.5C12.25 20.398 14.602 22.75 17.5 22.75C20.398 22.75 22.75 20.398 22.75 17.5C22.75 14.602 20.398 12.25 17.5 12.25ZM15.084 18.374L16.584 19.374C16.881 19.572 17.278 19.533 17.53 19.28L20.03 16.78C20.323 16.488 20.323 16.012 20.03 15.72C19.738 15.427 19.262 15.427 18.97 15.72L16.904 17.785L15.916 17.126C15.572 16.896 15.106 16.99 14.876 17.334C14.646 17.678 14.74 18.144 15.084 18.374Z" fill="#E20074"/>
</svg>
