<svg width="24" height="24" viewBox="0 0 24 24" fill="none" xmlns="http://www.w3.org/2000/svg">
<path d="M9.31971 8.19742L7.06971 15.2174C7.05635 15.2564 7.05245 15.2981 7.05831 15.3389C7.06418 15.3797 7.07964 15.4185 7.10343 15.4522C7.12722 15.4859 7.15867 15.5134 7.19518 15.5326C7.23169 15.5517 7.27222 15.562 7.31346 15.5624H7.94346C7.99969 15.5623 8.05435 15.5439 8.0993 15.5101C8.14424 15.4763 8.17705 15.4289 8.19283 15.3749L8.54533 14.2499H11.626L11.5828 14.1805L11.9691 15.3749C11.9849 15.4289 12.0177 15.4763 12.0626 15.5101C12.1076 15.5439 12.1622 15.5623 12.2185 15.5624H12.8485C12.8897 15.5627 12.9305 15.5531 12.9673 15.5345C13.0042 15.516 13.0361 15.4889 13.0604 15.4556C13.0848 15.4223 13.1009 15.3836 13.1074 15.3429C13.1139 15.3021 13.1106 15.2604 13.0978 15.2212L10.8478 8.20117C10.8318 8.14735 10.7989 8.1001 10.754 8.06635C10.7091 8.0326 10.6546 8.01414 10.5985 8.01367H9.56346C9.50867 8.01479 9.45562 8.03314 9.41186 8.06613C9.36811 8.09911 9.33586 8.14506 9.31971 8.19742ZM8.92033 13.1249L10.081 9.5118L11.251 13.1249H8.92033Z" fill="#8C8C8C"/>
<path d="M15.675 8.01562H15.075C14.93 8.01562 14.8125 8.13315 14.8125 8.27813V15.2981C14.8125 15.4431 14.93 15.5606 15.075 15.5606H15.675C15.82 15.5606 15.9375 15.4431 15.9375 15.2981V8.27813C15.9375 8.13315 15.82 8.01562 15.675 8.01562Z" fill="#8C8C8C"/>
<path d="M12.6113 5.625L7.155 5.62499C6.74922 5.62499 6.36006 5.78619 6.07313 6.07312C5.7862 6.36005 5.625 6.74921 5.625 7.155L5.625 16.845C5.625 17.2508 5.7862 17.6399 6.07313 17.9269C6.36006 18.2138 6.74922 18.375 7.155 18.375L16.845 18.375C17.2508 18.375 17.6399 18.2138 17.9269 17.9269C18.2138 17.6399 18.375 17.2508 18.375 16.845L18.375 12C18.3784 11.8977 18.4221 11.8009 18.4966 11.7307C18.571 11.6605 18.6702 11.6225 18.7725 11.625C19.0918 11.626 19.4069 11.5528 19.6931 11.4112C19.7525 11.3808 19.8188 11.3662 19.8855 11.369C19.9522 11.3718 20.0171 11.3918 20.0738 11.4271C20.1304 11.4624 20.177 11.5118 20.2088 11.5705C20.2407 11.6292 20.2568 11.6951 20.2556 11.7619L20.2556 16.845C20.2556 17.2926 20.1674 17.7359 19.9959 18.1493C19.8244 18.5628 19.5731 18.9384 19.2563 19.2547C18.9396 19.5709 18.5635 19.8216 18.1498 19.9924C17.736 20.1632 17.2926 20.2507 16.845 20.25L7.155 20.25C6.25194 20.25 5.38586 19.8913 4.7473 19.2527C4.10874 18.6141 3.75 17.7481 3.75 16.845L3.75 7.15499C3.75 6.25193 4.10874 5.38586 4.7473 4.7473C5.38586 4.10873 6.25194 3.74999 7.155 3.74999L13.3988 3.75C13.4755 3.7499 13.5505 3.77254 13.6144 3.81507C13.6782 3.85759 13.728 3.91809 13.7575 3.98891C13.787 4.05974 13.7949 4.13772 13.7801 4.213C13.7653 4.28828 13.7285 4.35748 13.6744 4.41187C13.3826 4.67954 13.1463 5.00189 12.9788 5.36062C12.9519 5.43699 12.9023 5.50329 12.8366 5.55057C12.7708 5.59784 12.6922 5.62382 12.6113 5.625Z" fill="#8C8C8C"/>
<path d="M20.3745 5.78246L22.0732 5.11309C22.1082 5.09926 22.1382 5.07524 22.1594 5.04415C22.1805 5.01305 22.1918 4.97632 22.1918 4.93871C22.1918 4.90111 22.1805 4.86437 22.1594 4.83327C22.1382 4.80218 22.1082 4.77816 22.0732 4.76434L20.3745 4.09496C20.0738 3.97606 19.8007 3.79674 19.572 3.56808C19.3433 3.33943 19.164 3.0663 19.0451 2.76559L18.3758 1.07809C18.3619 1.0432 18.3378 1.01329 18.3067 0.992226C18.2756 0.971165 18.2389 0.959925 18.2014 0.959961C18.1638 0.959925 18.1271 0.971165 18.096 0.992226C18.0649 1.01329 18.0409 1.0432 18.027 1.07809L17.3576 2.76559C17.239 3.06647 17.0598 3.33975 16.8311 3.56844C16.6024 3.79713 16.3291 3.97635 16.0283 4.09496L14.3408 4.76434C14.3058 4.77816 14.2758 4.80218 14.2546 4.83327C14.2335 4.86437 14.2222 4.90111 14.2222 4.93871C14.2222 4.97632 14.2335 5.01305 14.2546 5.04415C14.2758 5.07524 14.3058 5.09926 14.3408 5.11309L16.0283 5.78246C16.3291 5.90107 16.6024 6.08029 16.8311 6.30898C17.0598 6.53767 17.239 6.81095 17.3576 7.11184L18.027 8.79934C18.0406 8.83457 18.0645 8.86488 18.0956 8.8863C18.1267 8.90771 18.1636 8.91922 18.2014 8.91934C18.2391 8.91922 18.276 8.90771 18.3071 8.8863C18.3382 8.86488 18.3622 8.83457 18.3758 8.79934L19.0451 7.11184C19.164 6.81112 19.3433 6.53799 19.572 6.30934C19.8007 6.08068 20.0738 5.90136 20.3745 5.78246Z" fill="#8C8C8C"/>
</svg>
