<svg width="24" height="24" viewBox="0 0 24 24" fill="none" xmlns="http://www.w3.org/2000/svg">
<path d="M23.6139 12.7625C23.651 13.639 23.3351 14.4943 22.7355 15.1408C22.136 15.7872 21.3017 16.1719 20.4157 16.2106C20.3639 16.213 20.3121 16.2142 20.2605 16.2142C20.0251 16.214 19.7904 16.1888 19.5604 16.139C18.8781 17.1812 17.9834 18.071 16.9336 18.7516C15.8837 19.4321 14.7018 19.8884 13.4635 20.0912C13.3171 20.5169 13.0249 20.8785 12.6375 21.1137C12.25 21.3488 11.7917 21.4427 11.3418 21.379C10.8918 21.3153 10.4785 21.0981 10.1733 20.765C9.86803 20.4318 9.69004 20.0036 9.67008 19.5544C9.65012 19.1052 9.78943 18.6632 10.0639 18.3049C10.3385 17.9465 10.7309 17.6943 11.1735 17.5918C11.6161 17.4893 12.0809 17.543 12.4877 17.7436C12.8945 17.9442 13.2176 18.2791 13.4013 18.6904C15.1447 18.3714 16.7196 17.4574 17.8516 16.1076C18.9837 14.7578 19.601 13.0579 19.5961 11.304C19.5961 7.16051 16.1885 3.78957 12 3.78957C7.81145 3.78957 4.40387 7.16051 4.40387 11.304C4.40364 12.5852 4.73465 13.8452 5.36542 14.9643C5.3868 15.0012 5.40284 15.0409 5.41309 15.0822C5.47402 15.2497 5.4675 15.434 5.3949 15.5969C5.32229 15.7598 5.18916 15.8889 5.02304 15.9574C4.61629 16.1267 4.17941 16.2139 3.7381 16.2139C3.68617 16.2139 3.63412 16.2127 3.58196 16.2103C2.69635 16.1711 1.86257 15.7861 1.26345 15.1398C0.664339 14.4934 0.348783 13.6383 0.38598 12.7621C0.400933 12.4127 0.392589 12.101 0.384433 11.7995C0.376839 11.5157 0.368917 11.2222 0.381948 10.9159C0.420839 10.0604 0.792852 9.2529 1.42007 8.66264C2.04728 8.07238 2.88105 7.74509 3.74673 7.74933C5.13685 4.60296 8.31278 2.39844 12 2.39844C15.6872 2.39844 18.8631 4.60296 20.2532 7.74938C21.119 7.7445 21.953 8.0715 22.5804 8.66178C23.2077 9.25205 23.5796 10.0597 23.6179 10.9154C23.631 11.2221 23.6231 11.5156 23.6154 11.7994C23.6074 12.1009 23.599 12.4128 23.6139 12.7625ZM17.8971 11.304C17.8967 12.1977 17.6889 13.0794 17.2896 13.8811C16.8903 14.6828 16.3102 15.3831 15.594 15.9279C14.8779 16.4728 14.0448 16.8476 13.159 17.0236C12.2733 17.1995 11.3585 17.1718 10.4852 16.9427L8.09832 18.3064C7.97789 18.3752 7.83953 18.4071 7.70075 18.3981C7.56197 18.3891 7.42901 18.3396 7.31867 18.2559C7.20833 18.1721 7.12558 18.0579 7.08088 17.9276C7.03618 17.7973 7.03154 17.6568 7.06754 17.5239L7.67757 15.2727C6.66733 14.1925 6.10522 12.7756 6.10309 11.304C6.10309 8.0864 8.74829 5.46894 12 5.46894C15.2516 5.46894 17.8971 8.0864 17.8971 11.304ZM10.3605 11.304C10.3605 11.1195 10.2864 10.9426 10.1546 10.8122C10.0227 10.6817 9.84387 10.6084 9.65739 10.6084H9.65621C9.51721 10.6087 9.38139 10.6497 9.26594 10.7263C9.15048 10.8029 9.06056 10.9116 9.00755 11.0387C8.95453 11.1658 8.94079 11.3057 8.96807 11.4405C8.99535 11.5753 9.06242 11.6991 9.16081 11.7963C9.25919 11.8934 9.38448 11.9596 9.52084 11.9863C9.65719 12.013 9.7985 11.9992 9.9269 11.9465C10.0553 11.8938 10.165 11.8047 10.2422 11.6903C10.3194 11.5759 10.3607 11.4415 10.3607 11.304H10.3605ZM12.7032 11.304C12.7032 11.2812 12.7019 11.2585 12.6995 11.2358C12.6973 11.2131 12.6938 11.1905 12.6892 11.1681C12.685 11.1458 12.6794 11.1239 12.6723 11.1023C12.6658 11.0805 12.6578 11.0592 12.6494 11.0378C12.6409 11.0165 12.6306 10.9966 12.6198 10.9766C12.6091 10.9566 12.5974 10.9371 12.5847 10.9182C12.5719 10.8991 12.5581 10.8807 12.5434 10.863C12.5289 10.8453 12.5135 10.8284 12.497 10.8125C12.4811 10.7962 12.4637 10.7809 12.4459 10.7661C12.4281 10.7522 12.4093 10.7383 12.3901 10.7258C12.371 10.7132 12.3513 10.7016 12.3311 10.691C12.3109 10.6803 12.2898 10.6706 12.2687 10.6618C12.2476 10.653 12.226 10.6454 12.2041 10.639C12.1602 10.6251 12.1149 10.6161 12.0691 10.6121C12.0002 10.6056 11.9307 10.6089 11.8628 10.6219C11.8402 10.6264 11.8178 10.6322 11.7958 10.639C11.7739 10.6454 11.7523 10.653 11.7311 10.6618C11.71 10.6706 11.6889 10.6803 11.6688 10.691C11.6486 10.7016 11.6289 10.7132 11.6097 10.7258C11.5904 10.7383 11.5717 10.7522 11.5544 10.7661C11.5361 10.7809 11.5193 10.7962 11.5029 10.8125C11.4864 10.8284 11.4709 10.8453 11.4564 10.863C11.4419 10.8807 11.4283 10.8991 11.4157 10.9182C11.4028 10.937 11.3909 10.9566 11.38 10.9766C11.3692 10.9965 11.3595 11.0169 11.3509 11.0378C11.342 11.0589 11.3342 11.0804 11.3275 11.1023C11.321 11.1236 11.3154 11.1459 11.3107 11.1681C11.306 11.1905 11.3026 11.2131 11.3003 11.2358C11.298 11.2586 11.297 11.2813 11.297 11.304C11.297 11.3267 11.298 11.3499 11.3003 11.3726C11.3026 11.3952 11.3061 11.4176 11.3107 11.4399C11.3154 11.4621 11.321 11.4844 11.3275 11.5062C11.3342 11.5279 11.342 11.5492 11.3509 11.5702C11.3595 11.5912 11.3692 11.6118 11.38 11.6318C11.3908 11.6518 11.403 11.6713 11.4157 11.6903C11.4283 11.7092 11.4419 11.7274 11.4564 11.745C11.471 11.7628 11.4865 11.7798 11.5029 11.796C11.5193 11.8118 11.5361 11.8275 11.5544 11.8419C11.572 11.8564 11.5905 11.8699 11.6097 11.8822C11.6289 11.8948 11.6486 11.9068 11.6688 11.9175C11.7095 11.9385 11.752 11.9559 11.7958 11.9694C11.8178 11.9759 11.8403 11.9815 11.8628 11.9861C11.908 11.9953 11.954 11.9998 12.0002 11.9996C12.1864 11.9991 12.365 11.9259 12.497 11.796C12.5294 11.7635 12.5588 11.7281 12.5847 11.6903C12.5973 11.6713 12.6091 11.6518 12.6198 11.6318C12.6306 11.6119 12.6405 11.591 12.6494 11.5702C12.6583 11.5493 12.6658 11.5275 12.6723 11.5062C12.6793 11.4844 12.685 11.4623 12.6892 11.4399C12.6938 11.4176 12.6972 11.3952 12.6995 11.3726C12.7019 11.3498 12.7031 11.3269 12.7031 11.3039L12.7032 11.304ZM15.047 11.304C15.047 11.1195 14.9729 10.9426 14.841 10.8122C14.7092 10.6817 14.5303 10.6084 14.3439 10.6084H14.3425C14.2035 10.6087 14.0677 10.6497 13.9522 10.7263C13.8368 10.8029 13.7469 10.9116 13.6939 11.0387C13.6409 11.1659 13.6271 11.3057 13.6544 11.4405C13.6817 11.5754 13.7488 11.6992 13.8472 11.7963C13.9455 11.8935 14.0708 11.9596 14.2072 11.9863C14.3435 12.013 14.4848 11.9992 14.6132 11.9465C14.7416 11.8938 14.8514 11.8047 14.9286 11.6903C15.0058 11.5759 15.047 11.4415 15.047 11.304Z" fill="#E20074"/>
</svg>
