<svg width="20" height="16" viewBox="0 0 20 16" fill="none" xmlns="http://www.w3.org/2000/svg">
<path d="M9.99695 8.49125L1.32695 0.78125H1.49695H18.4969H18.6669L9.99695 8.49125ZM19.7169 1.86125L10.8269 9.76125C10.7696 9.80741 10.7055 9.84451 10.6369 9.87125C10.4515 10.0077 10.2272 10.0813 9.99695 10.0813C9.76667 10.0813 9.54243 10.0077 9.35695 9.87125C9.28836 9.84451 9.22428 9.80741 9.16695 9.76125L0.276946 1.86125C0.272268 1.9078 0.272268 1.9547 0.276946 2.00125V14.0012C0.276852 14.3276 0.404422 14.6411 0.632393 14.8747C0.860364 15.1083 1.17065 15.2434 1.49695 15.2512H18.4969C18.8285 15.2512 19.1464 15.1196 19.3808 14.8851C19.6153 14.6507 19.7469 14.3328 19.7469 14.0012V2.00125C19.7418 1.95368 19.7317 1.90677 19.7169 1.86125Z" fill="#F5F5F5"/>
</svg>
