<svg width="14" height="10" viewBox="0 0 14 10" fill="none" xmlns="http://www.w3.org/2000/svg">
<path fill-rule="evenodd" clip-rule="evenodd" d="M13.5018 4.99969L13.9168 4.79169V4.78969L13.9138 4.78669L13.9078 4.77469L13.8868 4.73469L13.8068 4.59069C13.7092 4.42229 13.6055 4.25752 13.4958 4.09669C13.13 3.55964 12.7094 3.06198 12.2408 2.61169C11.1148 1.53169 9.38184 0.429688 7.00184 0.429688C4.62384 0.429688 2.88984 1.53069 1.76384 2.61169C1.2953 3.06198 0.874719 3.55964 0.508841 4.09669C0.360379 4.31573 0.222876 4.54201 0.0968407 4.77469L0.0908407 4.78669L0.0888407 4.78969V4.79069C0.0888407 4.79069 0.0878408 4.79169 0.502841 4.99969L0.0878407 4.79069C0.055755 4.85551 0.0390625 4.92686 0.0390625 4.99919C0.0390625 5.07152 0.055755 5.14287 0.0878407 5.20769L0.0868407 5.20969L0.0898408 5.21269L0.0958407 5.22469C0.127022 5.28717 0.160376 5.34854 0.195841 5.40869C0.626439 6.1361 1.15319 6.8021 1.76184 7.38869C2.88884 8.46869 4.62184 9.56869 7.00184 9.56869C9.38084 9.56869 11.1148 8.46869 12.2418 7.38769C12.7095 6.93686 13.1297 6.43926 13.4958 5.90269C13.6361 5.69624 13.7665 5.48334 13.8868 5.26469L13.9078 5.22469L13.9138 5.21269L13.9158 5.20969V5.20869C13.9158 5.20869 13.9168 5.20769 13.5018 4.99969ZM13.5018 4.99969L13.9168 5.20869C13.9489 5.14387 13.9656 5.07251 13.9656 5.00019C13.9656 4.92786 13.9489 4.85651 13.9168 4.79169L13.5018 4.99969ZM6.94184 3.46369C6.53447 3.46369 6.14378 3.62552 5.85572 3.91357C5.56767 4.20163 5.40584 4.59231 5.40584 4.99969C5.40584 5.40706 5.56767 5.79775 5.85572 6.0858C6.14378 6.37386 6.53447 6.53569 6.94184 6.53569C7.34921 6.53569 7.7399 6.37386 8.02796 6.0858C8.31601 5.79775 8.47784 5.40706 8.47784 4.99969C8.47784 4.59231 8.31601 4.20163 8.02796 3.91357C7.7399 3.62552 7.34921 3.46369 6.94184 3.46369ZM4.47984 4.99969C4.47984 4.34619 4.73944 3.71947 5.20153 3.25738C5.66362 2.79529 6.29035 2.53569 6.94384 2.53569C7.59733 2.53569 8.22406 2.79529 8.68615 3.25738C9.14824 3.71947 9.40784 4.34619 9.40784 4.99969C9.40784 5.65318 9.14824 6.27991 8.68615 6.742C8.22406 7.20409 7.59733 7.46369 6.94384 7.46369C6.29035 7.46369 5.66362 7.20409 5.20153 6.742C4.73944 6.27991 4.47984 5.65318 4.47984 4.99969Z" fill="white"/>
</svg>
