<svg width="24" height="24" viewBox="0 0 24 24" fill="none" xmlns="http://www.w3.org/2000/svg">
<path d="M8.415 15.57C7.25 16.485 6.5 17.905 6.5 19.5V21H3.5C2.67 21 2 20.33 2 19.5V18.5C2 16.565 3.565 15 5.5 15H6.5C7.21 15 7.865 15.21 8.415 15.57Z" fill="#E20074"/>
<path d="M18 15C19.2426 15 20.25 13.9926 20.25 12.75C20.25 11.5074 19.2426 10.5 18 10.5C16.7574 10.5 15.75 11.5074 15.75 12.75C15.75 13.9926 16.7574 15 18 15Z" fill="#E20074"/>
<path d="M6 15C7.24264 15 8.25 13.9926 8.25 12.75C8.25 11.5074 7.24264 10.5 6 10.5C4.75736 10.5 3.75 11.5074 3.75 12.75C3.75 13.9926 4.75736 15 6 15Z" fill="#E20074"/>
<path d="M22.0009 18.5V19.5C22.0009 20.33 21.3309 21 20.5009 21H17.5009V19.5C17.5009 17.905 16.7509 16.485 15.5859 15.57C16.1359 15.21 16.7909 15 17.5009 15H18.5009C20.4359 15 22.0009 16.565 22.0009 18.5Z" fill="#E20074"/>
<path d="M12 15.5C13.5188 15.5 14.75 14.2688 14.75 12.75C14.75 11.2312 13.5188 10 12 10C10.4812 10 9.25 11.2312 9.25 12.75C9.25 14.2688 10.4812 15.5 12 15.5Z" fill="#E20074"/>
<path d="M12.5 15.5H11.5C9.2945 15.5 7.5 17.2945 7.5 19.5V21C7.5 21.827 8.173 22.5 9 22.5H15C15.827 22.5 16.5 21.827 16.5 21V19.5C16.5 17.2945 14.7055 15.5 12.5 15.5Z" fill="#E20074"/>
<path d="M19.2501 8.34202L18.0436 8.77102C17.7011 8.89252 17.3436 8.63302 17.3536 8.26952L17.3886 6.98952L16.6076 5.97452C16.3861 5.68652 16.5226 5.26602 16.8711 5.16302L18.0996 4.80102L18.8236 3.74452C19.0291 3.44502 19.4711 3.44502 19.6766 3.74452L20.4006 4.80102L21.6291 5.16302C21.9776 5.26552 22.1141 5.68652 21.8926 5.97452L21.1116 6.98952L21.1466 8.26952C21.1566 8.63252 20.7986 8.89252 20.4566 8.77102L19.2501 8.34202Z" fill="#E20074"/>
<path d="M4.75008 8.34202L3.54358 8.77102C3.20108 8.89252 2.84358 8.63302 2.85358 8.26952L2.88858 6.98952L2.10758 5.97452C1.88608 5.68652 2.02258 5.26602 2.37108 5.16302L3.59958 4.80102L4.32358 3.74452C4.52908 3.44502 4.97108 3.44502 5.17658 3.74452L5.90058 4.80102L7.12908 5.16302C7.47758 5.26552 7.61408 5.68652 7.39258 5.97452L6.61158 6.98952L6.64658 8.26952C6.65658 8.63252 6.29858 8.89252 5.95658 8.77102L4.75008 8.34202Z" fill="#E20074"/>
<path d="M12.0026 7.21701L10.5721 7.72551C10.1661 7.87001 9.74212 7.56151 9.75412 7.13101L9.79562 5.61351L8.86962 4.41001C8.60712 4.06851 8.76912 3.57001 9.18212 3.44801L10.6386 3.01851L11.4971 1.76601C11.7406 1.41051 12.2651 1.41051 12.5086 1.76601L13.3671 3.01851L14.8236 3.44801C15.2366 3.57001 15.3986 4.06851 15.1361 4.41001L14.2101 5.61351L14.2516 7.13101C14.2636 7.56151 13.8391 7.87001 13.4336 7.72551L12.0026 7.21701Z" fill="#E20074"/>
</svg>
