<svg width="21" height="21" viewBox="0 0 21 21" fill="none" xmlns="http://www.w3.org/2000/svg">
<path d="M5.348 9.864C2.828 9.864 0.812 7.932 0.812 5.44C0.812 2.948 2.828 0.987999 5.348 0.987999C7.84 0.987999 9.856 2.948 9.856 5.44C9.856 7.932 7.84 9.864 5.348 9.864ZM17.64 1.296L7.028 20H3.64L14.252 1.296H17.64ZM5.348 7.316C6.384 7.316 7.112 6.532 7.112 5.44C7.112 4.348 6.384 3.536 5.348 3.536C4.312 3.536 3.5 4.348 3.5 5.44C3.5 6.532 4.312 7.316 5.348 7.316ZM16.016 20.28C13.496 20.28 11.48 18.32 11.48 15.828C11.48 13.336 13.496 11.376 16.016 11.376C18.508 11.376 20.552 13.336 20.552 15.828C20.552 18.32 18.508 20.28 16.016 20.28ZM16.016 17.704C17.052 17.704 17.808 16.92 17.808 15.828C17.808 14.736 17.052 13.924 16.016 13.924C14.98 13.924 14.196 14.736 14.196 15.828C14.196 16.92 14.98 17.704 16.016 17.704Z" fill="#E20074"/>
</svg>
