<svg width="18" height="19" viewBox="0 0 18 19" fill="none" xmlns="http://www.w3.org/2000/svg">
<path d="M16.2271 12.7686L13.6871 12.4786C13.3884 12.4435 13.0857 12.4765 12.8017 12.5753C12.5176 12.674 12.2596 12.8358 12.0471 13.0486L10.2071 14.8886C7.36851 13.4445 5.06117 11.1372 3.61711 8.29856L5.46711 6.44856C5.89711 6.01856 6.10711 5.41856 6.03711 4.80856L5.74711 2.28856C5.69063 1.80065 5.45658 1.35058 5.08957 1.02415C4.72257 0.697721 4.24828 0.517755 3.75711 0.518557H2.02711C0.897111 0.518557 -0.042889 1.45856 0.027111 2.58856C0.557111 11.1286 7.38711 17.9486 15.9171 18.4786C17.0471 18.5486 17.9871 17.6086 17.9871 16.4786V14.7486C17.9971 13.7386 17.2371 12.8886 16.2271 12.7686Z" fill="#A7005A"/>
</svg>
