<svg width="22" height="22" viewBox="0 0 22 22" fill="none" xmlns="http://www.w3.org/2000/svg">
<path d="M20.7129 18.7949C21.082 19.2051 21.082 19.8203 20.6719 20.1895L19.5234 21.3379C19.1543 21.748 18.5391 21.748 18.1289 21.3379L14.0684 17.2773C13.8633 17.0723 13.7812 16.8262 13.7812 16.5801V15.8828C12.3047 17.0312 10.5 17.6875 8.53125 17.6875C3.81445 17.6875 0 13.873 0 9.15625C0 4.48047 3.81445 0.625 8.53125 0.625C13.207 0.625 17.0625 4.48047 17.0625 9.15625C17.0625 11.166 16.3652 12.9707 15.2578 14.4062H15.9141C16.1602 14.4062 16.4062 14.5293 16.6113 14.6934L20.7129 18.7949ZM8.53125 14.4062C11.4023 14.4062 13.7812 12.0684 13.7812 9.15625C13.7812 6.28516 11.4023 3.90625 8.53125 3.90625C5.61914 3.90625 3.28125 6.28516 3.28125 9.15625C3.28125 12.0684 5.61914 14.4062 8.53125 14.4062Z" fill="white"/>
</svg>
