<svg width="23" height="22" viewBox="0 0 23 22" fill="none" xmlns="http://www.w3.org/2000/svg">
<path d="M14.2335 13.5303C15.3873 12.3765 15.9643 10.991 15.9643 9.37384C15.9643 7.7567 15.3873 6.37558 14.2335 5.23048C13.0884 4.07663 11.7073 3.49971 10.0901 3.49971C8.47301 3.49971 7.08752 4.07663 5.93368 5.23048C4.78857 6.37558 4.21602 7.7567 4.21602 9.37384C4.21602 10.991 4.78857 12.3765 5.93368 13.5303C7.08752 14.6754 8.47301 15.248 10.0901 15.248C11.7073 15.248 13.0884 14.6754 14.2335 13.5303ZM22.6776 20.2829C22.6776 20.7375 22.5115 21.1308 22.1793 21.463C21.8471 21.7952 21.4538 21.9612 20.9992 21.9612C20.5272 21.9612 20.1339 21.7952 19.8192 21.463L15.3218 16.9787C13.7571 18.0626 12.0132 18.6046 10.0901 18.6046C8.84014 18.6046 7.64259 18.3642 6.49749 17.8835C5.36112 17.3939 4.37773 16.7383 3.54731 15.9167C2.72563 15.0862 2.07004 14.1029 1.58053 12.9665C1.09976 11.8214 0.859375 10.6238 0.859375 9.37384C0.859375 8.12384 1.09976 6.93065 1.58053 5.79429C2.07004 4.64919 2.72563 3.66579 3.54731 2.84412C4.37773 2.0137 5.36112 1.3581 6.49749 0.877332C7.64259 0.387822 8.84014 0.143066 10.0901 0.143066C11.3401 0.143066 12.5333 0.387822 13.6697 0.877332C14.8148 1.3581 15.7982 2.0137 16.6199 2.84412C17.4503 3.66579 18.1059 4.64919 18.5866 5.79429C19.0762 6.93065 19.3209 8.12384 19.3209 9.37384C19.3209 11.2969 18.779 13.0408 17.695 14.6055L22.1924 19.1029C22.5158 19.4263 22.6776 19.8196 22.6776 20.2829Z" fill="#E20074"/>
</svg>
