<svg width="20" height="20" viewBox="0 0 20 20" fill="none" xmlns="http://www.w3.org/2000/svg">
<g clip-path="url(#clip0_437_22041)">
<path fill-rule="evenodd" clip-rule="evenodd" d="M9.9987 6.66683C9.11464 6.66683 8.2668 7.01802 7.64167 7.64314C7.01655 8.26826 6.66536 9.11611 6.66536 10.0002C6.66536 10.8842 7.01655 11.7321 7.64167 12.3572C8.2668 12.9823 9.11464 13.3335 9.9987 13.3335C10.8828 13.3335 11.7306 12.9823 12.3557 12.3572C12.9808 11.7321 13.332 10.8842 13.332 10.0002C13.332 9.11611 12.9808 8.26826 12.3557 7.64314C11.7306 7.01802 10.8828 6.66683 9.9987 6.66683ZM8.82019 8.82165C9.13275 8.50909 9.55667 8.3335 9.9987 8.3335C10.4407 8.3335 10.8646 8.50909 11.1772 8.82165C11.4898 9.13421 11.6654 9.55813 11.6654 10.0002C11.6654 10.4422 11.4898 10.8661 11.1772 11.1787C10.8646 11.4912 10.4407 11.6668 9.9987 11.6668C9.55667 11.6668 9.13275 11.4912 8.82019 11.1787C8.50763 10.8661 8.33203 10.4422 8.33203 10.0002C8.33203 9.55813 8.50763 9.13421 8.82019 8.82165Z" fill="white"/>
<path fill-rule="evenodd" clip-rule="evenodd" d="M9.14953 0.833496C8.77099 0.833496 8.44001 1.08863 8.34365 1.4547L7.92135 3.05904L6.57965 3.62463L5.55261 2.7109C5.22285 2.41752 4.72154 2.43214 4.40944 2.74424L2.74278 4.41091C2.44086 4.71283 2.41598 5.1941 2.68517 5.52553L3.58528 6.63379L3.03331 7.99173L1.47591 8.35532C1.0988 8.44336 0.832031 8.77958 0.832031 9.16683V10.8335C0.832031 11.2093 1.08352 11.5386 1.44604 11.6374L3.05578 12.0766L3.6229 13.4219L2.71008 14.4455C2.41607 14.7752 2.43041 15.2771 2.74278 15.5894L4.40944 17.2561C4.71177 17.5584 5.19384 17.5829 5.52524 17.3127L6.6331 16.4096L7.95766 16.9545L8.35739 18.5375C8.45083 18.9076 8.78371 19.1668 9.16536 19.1668H10.832C11.2135 19.1668 11.5463 18.9078 11.6399 18.5379L12.0406 16.9542L13.4095 16.3872C13.5473 16.5027 13.7053 16.6384 13.8625 16.7753C14.0187 16.9113 14.1639 17.0395 14.2702 17.1338C14.3232 17.1809 14.3664 17.2194 14.3963 17.2461L14.4416 17.2866C14.7711 17.5822 15.2749 17.5691 15.588 17.2561L17.2546 15.5894C17.5613 15.2827 17.5815 14.792 17.3009 14.4612L16.3932 13.3907L16.9549 12.034L18.5416 11.6217C18.9089 11.5263 19.1654 11.1947 19.1654 10.8152V9.16683C19.1654 8.78573 18.9068 8.45319 18.5375 8.35922L16.9606 7.95803L16.4003 6.60461L17.3018 5.53812C17.5815 5.20725 17.561 4.71726 17.2546 4.41091L15.588 2.74424C15.2804 2.43665 14.7879 2.41739 14.4572 2.70004L13.3986 3.60489L11.9975 3.02882L11.5838 1.45497C11.4876 1.08877 11.1565 0.833496 10.7779 0.833496H9.14953ZM15.5333 14.9537L14.9632 15.5238L14.957 15.5184C14.6492 15.2504 14.2528 14.9113 14.0292 14.7514C13.7952 14.5841 13.4914 14.5493 13.2256 14.6594L11.0165 15.5744C10.7733 15.6751 10.5921 15.8848 10.5275 16.1399L10.1833 17.5002H9.81443L9.47084 16.1395C9.40619 15.8835 9.22406 15.6733 8.97989 15.5728L6.80822 14.6795C6.52544 14.5632 6.20166 14.611 5.96466 14.8043L5.05565 15.5453L4.47779 14.9674L5.21732 14.1381C5.43141 13.8981 5.48821 13.5562 5.36326 13.2598L4.43409 11.0556C4.33468 10.8198 4.13242 10.6427 3.88552 10.5754L2.4987 10.197V9.82802L3.83232 9.51667C4.09578 9.45517 4.31299 9.26959 4.41486 9.01896L5.31486 6.80479C5.42933 6.52318 5.38137 6.20159 5.18973 5.96562L4.45263 5.05808L5.0321 4.47861L5.86479 5.21943C6.10485 5.433 6.44632 5.48954 6.7424 5.36472L8.94657 4.43556C9.1848 4.33513 9.36294 4.12981 9.42875 3.87979L9.7919 2.50016H10.1353L10.4911 3.85369C10.5575 4.10634 10.7385 4.31322 10.9801 4.41256L13.236 5.34006C13.5252 5.45897 13.8566 5.40596 14.0943 5.20279L14.9544 4.46767L15.5342 5.0475L14.7998 5.91637C14.5985 6.15447 14.547 6.485 14.6662 6.77307L15.5804 8.9814C15.6809 9.22426 15.8902 9.40546 16.1449 9.47027L17.4987 9.8147V10.1707L16.1341 10.5253C15.8812 10.591 15.6737 10.7716 15.5737 11.013L14.6587 13.223C14.5393 13.5116 14.5912 13.8426 14.7931 14.0808L15.5333 14.9537Z" fill="white"/>
</g>
<defs>
<clipPath id="clip0_437_22041">
<rect width="20" height="20" fill="white"/>
</clipPath>
</defs>
</svg>
