<svg width="20" height="20" viewBox="0 0 20 20" fill="none" xmlns="http://www.w3.org/2000/svg">
<path fill-rule="evenodd" clip-rule="evenodd" d="M9.9987 2.5C8.89363 2.5 7.83382 2.93899 7.05242 3.72039C6.27102 4.50179 5.83203 5.5616 5.83203 6.66667C5.83203 7.77174 6.27102 8.83154 7.05242 9.61294C7.10739 9.66791 7.16373 9.72119 7.22137 9.77273C6.50761 10.0998 5.85051 10.5534 5.28465 11.1193C4.03441 12.3695 3.33203 14.0652 3.33203 15.8333V16.6667C3.33203 17.1269 3.70513 17.5 4.16536 17.5C4.6256 17.5 4.9987 17.1269 4.9987 16.6667V15.8333C4.9987 14.5073 5.52548 13.2355 6.46316 12.2978C7.40085 11.3601 8.67262 10.8333 9.9987 10.8333C11.3248 10.8333 12.5965 11.3601 13.5342 12.2978C14.4719 13.2355 14.9987 14.5073 14.9987 15.8333V16.6667C14.9987 17.1269 15.3718 17.5 15.832 17.5C16.2923 17.5 16.6654 17.1269 16.6654 16.6667V15.8333C16.6654 14.0652 15.963 12.3695 14.7127 11.1193C14.1469 10.5534 13.4898 10.0998 12.776 9.77273C12.8337 9.72119 12.89 9.66791 12.945 9.61294C13.7264 8.83154 14.1654 7.77174 14.1654 6.66667C14.1654 5.5616 13.7264 4.50179 12.945 3.72039C12.1636 2.93899 11.1038 2.5 9.9987 2.5ZM8.23093 4.8989C8.69977 4.43006 9.33566 4.16667 9.9987 4.16667C10.6617 4.16667 11.2976 4.43006 11.7665 4.8989C12.2353 5.36774 12.4987 6.00363 12.4987 6.66667C12.4987 7.32971 12.2353 7.96559 11.7665 8.43443C11.2976 8.90327 10.6617 9.16667 9.9987 9.16667C9.33566 9.16667 8.69977 8.90327 8.23093 8.43443C7.76209 7.96559 7.4987 7.32971 7.4987 6.66667C7.4987 6.00363 7.76209 5.36774 8.23093 4.8989Z" fill="#E20074"/>
</svg>
