<svg width="24" height="24" viewBox="0 0 24 24" fill="none" xmlns="http://www.w3.org/2000/svg">
<path fill-rule="evenodd" clip-rule="evenodd" d="M19.7824 10.4186C21.141 11.9241 22.1538 13.2302 22.8208 14.4014C25.2636 18.6905 21.7885 23.0468 17.1346 22.9684C12.4808 23.0468 9.00572 18.6905 11.4485 14.4014C12.1155 13.2302 13.1284 11.9241 14.4869 10.4186C14.649 10.47 14.8215 10.4978 15.0003 10.4978H19.2689C19.4477 10.4978 19.6202 10.47 19.7824 10.4186ZM15.0004 9.74775H19.269C19.7953 9.74775 20.2258 9.31716 20.2258 8.79098C20.2258 8.26467 19.7952 7.83417 19.269 7.83417H15.0004C14.4741 7.83417 14.0436 8.26472 14.0436 8.79094C14.0436 9.3172 14.4741 9.74775 15.0004 9.74775ZM1.2112 16.7833H9.91884C9.99928 15.8333 10.3028 14.8976 10.7968 14.0302C11.6029 12.6147 12.7237 11.2506 13.845 10.0081C13.2827 9.46814 12.4694 9.10477 11.5986 8.88877C10.4925 8.61436 9.3802 8.445 8.2612 8.38988L9.35175 12.5823C9.38925 12.7266 9.35241 12.8685 9.24947 12.9763L7.6163 14.6861C7.58358 14.7204 7.54275 14.7378 7.49536 14.7378C7.44797 14.7378 7.40714 14.7204 7.37442 14.6861L5.7412 12.9763C5.63822 12.8685 5.60138 12.7266 5.63888 12.5823L6.73031 8.38645C5.62439 8.43638 4.51177 8.60081 3.39206 8.88872C1.78987 9.3007 0.375 10.1859 0.375 11.7714V15.947C0.375047 16.4077 0.750656 16.7833 1.2112 16.7833ZM7.49536 1.03125C9.05091 1.03125 10.312 1.91775 10.312 3.96225C10.312 6.00675 9.05095 7.66416 7.49536 7.66416C5.93972 7.66416 4.67869 6.00675 4.67869 3.96225C4.67869 1.91775 5.93977 1.03125 7.49536 1.03125ZM17.0856 18.4688C16.798 18.4614 16.5189 18.3835 16.2964 18.2353C16.095 18.1012 15.9412 17.905 15.8769 17.6473C15.8197 17.4146 15.5847 17.2724 15.352 17.3296C15.1194 17.3869 14.9772 17.6219 15.0344 17.8545C15.1558 18.3413 15.4428 18.7094 15.8174 18.9589C16.0733 19.1293 16.3705 19.242 16.6817 19.2968V19.6344C16.6817 19.8745 16.8764 20.0692 17.1165 20.0692C17.3567 20.0692 17.5514 19.8746 17.5514 19.6344V19.3051C17.9296 19.2475 18.3149 19.1094 18.6174 18.8799C18.981 18.6041 19.2228 18.2091 19.2102 17.679C19.2087 17.6182 19.2052 17.5649 19.1997 17.5192C19.1292 16.9384 18.815 16.5603 18.3983 16.3087C18.0322 16.0877 17.5933 15.9776 17.1909 15.9116C16.9006 15.8639 16.5949 15.7832 16.371 15.6371C16.1976 15.5238 16.0732 15.3599 16.0615 15.1201C16.0489 14.8607 16.1621 14.6514 16.3406 14.5064C16.4804 14.3927 16.6587 14.3138 16.852 14.2748C16.9298 14.2592 17.0098 14.2501 17.0906 14.248C17.0992 14.2485 17.1078 14.2488 17.1165 14.2488C17.127 14.2488 17.1373 14.2485 17.1476 14.2477C17.2545 14.2492 17.3622 14.263 17.4673 14.2896C17.7906 14.3715 18.0848 14.5846 18.2399 14.9537C18.3327 15.1751 18.5875 15.2793 18.8089 15.1864C19.0303 15.0936 19.1344 14.8387 19.0416 14.6174C18.7687 13.9674 18.2491 13.5919 17.6779 13.4471C17.636 13.4365 17.5938 13.4272 17.5514 13.4191V13.0822C17.5514 12.8421 17.3567 12.6473 17.1165 12.6473C16.8764 12.6473 16.6817 12.8421 16.6817 13.0822V13.4257C16.3522 13.4921 16.0428 13.6312 15.7936 13.8337C15.4107 14.1451 15.1678 14.5972 15.1952 15.161C15.2227 15.7274 15.5053 16.1073 15.8988 16.3642C16.2419 16.5881 16.6631 16.704 17.0516 16.7677C17.3636 16.8189 17.6968 16.8999 17.9498 17.0527C18.1523 17.1749 18.3044 17.3535 18.3368 17.6212C18.3412 17.6569 18.3435 17.6828 18.3439 17.6993C18.3489 17.9122 18.2471 18.0743 18.0942 18.1903C17.9028 18.3355 17.634 18.4212 17.3653 18.4538C17.2921 18.4627 17.2282 18.4677 17.174 18.469L17.1532 18.4694C17.1411 18.4683 17.1289 18.4678 17.1165 18.4678C17.1061 18.4677 17.0958 18.4681 17.0856 18.4688ZM14.9963 7.08422L14.1797 6.26761C13.7973 5.8852 13.7973 5.25947 14.1797 4.87711C14.5049 4.55184 15.0198 4.49691 15.4068 4.7453C15.5505 4.83755 15.7156 4.85227 15.8734 4.78697C16.0311 4.72162 16.1374 4.59455 16.1738 4.42762C16.2702 3.98625 16.6654 3.65311 17.1346 3.65302C17.5954 3.65302 17.9973 3.97781 18.0955 4.42762C18.1319 4.59455 18.2382 4.72162 18.396 4.78697C18.5538 4.85236 18.7188 4.83755 18.8625 4.7453C19.2427 4.50131 19.7578 4.54528 20.0896 4.87702V4.87711C20.472 5.25952 20.472 5.88525 20.0896 6.26761L19.273 7.08422L19.2689 7.08417H15.0003L14.9963 7.08422Z" fill="#E20074"/>
</svg>
