<svg width="18" height="16" viewBox="0 0 18 16" fill="none" xmlns="http://www.w3.org/2000/svg">
<path d="M6.98709 5.46479L5.29959 10.1448C5.28958 10.1708 5.28665 10.1985 5.29105 10.2257C5.29545 10.253 5.30704 10.2789 5.32489 10.3013C5.34273 10.3238 5.36631 10.3421 5.3937 10.3549C5.42108 10.3677 5.45148 10.3745 5.48241 10.3748H5.95491C5.99708 10.3747 6.03808 10.3624 6.07179 10.3399C6.1055 10.3174 6.1301 10.2858 6.14194 10.2498L6.40631 9.49978H8.71678L8.68444 9.45353L8.97413 10.2498C8.98596 10.2858 9.01057 10.3174 9.04427 10.3399C9.07798 10.3624 9.11898 10.3747 9.16116 10.3748H9.63366C9.66461 10.3749 9.69516 10.3686 9.72279 10.3562C9.75043 10.3438 9.77437 10.3258 9.79263 10.3036C9.81089 10.2813 9.82296 10.2556 9.82783 10.2284C9.83271 10.2013 9.83026 10.1734 9.82069 10.1473L8.13319 5.46729C8.12115 5.43141 8.0965 5.3999 8.06283 5.37741C8.02917 5.35491 7.98827 5.3426 7.94616 5.34229H7.16991C7.12881 5.34303 7.08903 5.35526 7.05621 5.37726C7.02339 5.39925 6.99921 5.42988 6.98709 5.46479ZM6.68756 8.74978L7.55803 6.34103L8.43553 8.74978H6.68756Z" fill="#A7005A"/>
<path d="M11.7562 5.34375H11.3063C11.1975 5.34375 11.1094 5.4221 11.1094 5.51875V10.1987C11.1094 10.2954 11.1975 10.3737 11.3063 10.3737H11.7562C11.865 10.3737 11.9531 10.2954 11.9531 10.1987V5.51875C11.9531 5.4221 11.865 5.34375 11.7562 5.34375Z" fill="#A7005A"/>
<path d="M9.45844 3.75L5.36625 3.75C5.06191 3.75 4.77004 3.85746 4.55485 4.04875C4.33965 4.24004 4.21875 4.49948 4.21875 4.77L4.21875 11.23C4.21875 11.5005 4.33965 11.76 4.55484 11.9512C4.77004 12.1425 5.06191 12.25 5.36625 12.25L12.6337 12.25C12.9381 12.25 13.23 12.1425 13.4452 11.9512C13.6604 11.76 13.7813 11.5005 13.7813 11.23L13.7813 8C13.7838 7.93181 13.8166 7.86728 13.8724 7.82046C13.9283 7.77363 14.0026 7.74831 14.0794 7.75C14.3188 7.75064 14.5552 7.70186 14.7698 7.6075C14.8144 7.58718 14.8641 7.57747 14.9142 7.57933C14.9642 7.58118 15.0128 7.59454 15.0553 7.61808C15.0978 7.64163 15.1327 7.67456 15.1566 7.71368C15.1805 7.75279 15.1926 7.79674 15.1917 7.84125L15.1917 11.23C15.1917 11.5284 15.1255 11.8239 14.9969 12.0996C14.8683 12.3752 14.6798 12.6256 14.4423 12.8365C14.2047 13.0473 13.9226 13.2144 13.6123 13.3283C13.302 13.4421 12.9695 13.5005 12.6337 13.5L5.36625 13.5C4.68895 13.5 4.0394 13.2608 3.56048 12.8351C3.08156 12.4094 2.8125 11.832 2.8125 11.23L2.8125 4.77C2.8125 4.16796 3.08156 3.59057 3.56048 3.16486C4.0394 2.73916 4.68895 2.5 5.36625 2.5L10.0491 2.5C10.1066 2.49993 10.1629 2.51503 10.2108 2.54338C10.2587 2.57173 10.296 2.61206 10.3182 2.65928C10.3403 2.70649 10.3462 2.75848 10.3351 2.80867C10.324 2.85885 10.2964 2.90499 10.2558 2.94125C10.037 3.11969 9.85972 3.33459 9.73406 3.57375C9.71393 3.62466 9.6767 3.66886 9.62741 3.70038C9.57813 3.7319 9.51915 3.74922 9.45844 3.75Z" fill="#A7005A"/>
<path d="M15.2783 3.85514L16.5524 3.40889C16.5786 3.39967 16.6011 3.38366 16.617 3.36293C16.6328 3.3422 16.6413 3.31771 16.6413 3.29264C16.6413 3.26757 16.6328 3.24308 16.617 3.22234C16.6011 3.20161 16.5786 3.1856 16.5524 3.17639L15.2783 2.73014C15.0528 2.65087 14.8479 2.53132 14.6764 2.37889C14.5049 2.22645 14.3705 2.04436 14.2813 1.84389L13.7792 0.718886C13.7688 0.695628 13.7508 0.675688 13.7275 0.661647C13.7042 0.647606 13.6766 0.640113 13.6485 0.640137C13.6203 0.640113 13.5928 0.647606 13.5695 0.661647C13.5461 0.675688 13.5281 0.695628 13.5177 0.718886L13.0157 1.84389C12.9267 2.04448 12.7923 2.22666 12.6208 2.37912C12.4492 2.53159 12.2443 2.65106 12.0186 2.73014L10.753 3.17639C10.7268 3.1856 10.7043 3.20161 10.6884 3.22234C10.6725 3.24308 10.6641 3.26757 10.6641 3.29264C10.6641 3.31771 10.6725 3.3422 10.6884 3.36293C10.7043 3.38366 10.7268 3.39967 10.753 3.40889L12.0186 3.85514C12.2443 3.93421 12.4492 4.05369 12.6208 4.20615C12.7923 4.35861 12.9267 4.5408 13.0157 4.74139L13.5177 5.86639C13.5279 5.88988 13.5458 5.91009 13.5692 5.92436C13.5925 5.93864 13.6201 5.94631 13.6485 5.94639C13.6768 5.94631 13.7044 5.93864 13.7278 5.92436C13.7511 5.91009 13.7691 5.88988 13.7792 5.86639L14.2813 4.74139C14.3705 4.54091 14.5049 4.35882 14.6764 4.20639C14.8479 4.05395 15.0528 3.9344 15.2783 3.85514Z" fill="#A7005A"/>
</svg>
