<svg width="24" height="24" viewBox="0 0 24 24" fill="none" xmlns="http://www.w3.org/2000/svg">
<path d="M9.31873 8.19937L7.06873 15.2194C7.05538 15.2584 7.05147 15.3 7.05734 15.3408C7.0632 15.3816 7.07866 15.4205 7.10245 15.4542C7.12625 15.4878 7.15769 15.5154 7.1942 15.5345C7.23071 15.5537 7.27125 15.5639 7.31248 15.5644H7.94248C7.99871 15.5642 8.05338 15.5459 8.09832 15.5121C8.14327 15.4783 8.17608 15.4308 8.19185 15.3769L8.54435 14.2519H11.625L11.5819 14.1825L11.9681 15.3769C11.9839 15.4308 12.0167 15.4783 12.0616 15.5121C12.1066 15.5459 12.1612 15.5642 12.2175 15.5644H12.8475C12.8887 15.5646 12.9295 15.5551 12.9663 15.5365C13.0032 15.5179 13.0351 15.4908 13.0594 15.4575C13.0838 15.4242 13.0999 15.3856 13.1064 15.3448C13.1129 15.3041 13.1096 15.2624 13.0969 15.2231L10.8469 8.20312C10.8308 8.14931 10.7979 8.10205 10.753 8.06831C10.7082 8.03456 10.6536 8.01609 10.5975 8.01562H9.56248C9.50769 8.01674 9.45465 8.03509 9.41089 8.06808C9.36713 8.10107 9.33488 8.14701 9.31873 8.19937ZM8.91935 13.1269L10.08 9.51375L11.25 13.1269H8.91935Z" fill="#E20074"/>
<path d="M15.675 8.01562H15.075C14.93 8.01562 14.8125 8.13315 14.8125 8.27813V15.2981C14.8125 15.4431 14.93 15.5606 15.075 15.5606H15.675C15.82 15.5606 15.9375 15.4431 15.9375 15.2981V8.27813C15.9375 8.13315 15.82 8.01562 15.675 8.01562Z" fill="#E20074"/>
<path d="M12.6113 5.625L7.155 5.62499C6.74922 5.62499 6.36006 5.78619 6.07313 6.07312C5.7862 6.36005 5.625 6.74921 5.625 7.155L5.625 16.845C5.625 17.2508 5.7862 17.6399 6.07313 17.9269C6.36006 18.2138 6.74922 18.375 7.155 18.375L16.845 18.375C17.2508 18.375 17.6399 18.2138 17.9269 17.9269C18.2138 17.6399 18.375 17.2508 18.375 16.845L18.375 12C18.3784 11.8977 18.4221 11.8009 18.4966 11.7307C18.571 11.6605 18.6702 11.6225 18.7725 11.625C19.0918 11.626 19.4069 11.5528 19.6931 11.4112C19.7525 11.3808 19.8188 11.3662 19.8855 11.369C19.9522 11.3718 20.0171 11.3918 20.0738 11.4271C20.1304 11.4624 20.177 11.5118 20.2088 11.5705C20.2407 11.6292 20.2568 11.6951 20.2556 11.7619L20.2556 16.845C20.2556 17.2926 20.1674 17.7359 19.9959 18.1493C19.8244 18.5628 19.5731 18.9384 19.2563 19.2547C18.9396 19.5709 18.5635 19.8216 18.1498 19.9924C17.736 20.1632 17.2926 20.2507 16.845 20.25L7.155 20.25C6.25194 20.25 5.38586 19.8913 4.7473 19.2527C4.10874 18.6141 3.75 17.7481 3.75 16.845L3.75 7.15499C3.75 6.25193 4.10874 5.38586 4.7473 4.7473C5.38586 4.10873 6.25194 3.74999 7.155 3.74999L13.3988 3.75C13.4755 3.7499 13.5505 3.77254 13.6144 3.81507C13.6782 3.85759 13.728 3.91809 13.7575 3.98891C13.787 4.05974 13.7949 4.13772 13.7801 4.213C13.7653 4.28828 13.7285 4.35748 13.6744 4.41187C13.3826 4.67954 13.1463 5.00189 12.9788 5.36062C12.9519 5.43699 12.9023 5.50329 12.8366 5.55057C12.7708 5.59784 12.6922 5.62382 12.6113 5.625Z" fill="#E20074"/>
<path d="M20.3711 5.78344L22.0698 5.11406C22.1048 5.10024 22.1348 5.07622 22.156 5.04513C22.1771 5.01403 22.1884 4.97729 22.1884 4.93969C22.1884 4.90208 22.1771 4.86535 22.156 4.83425C22.1348 4.80315 22.1048 4.77914 22.0698 4.76531L20.3711 4.09594C20.0704 3.97704 19.7972 3.79772 19.5686 3.56906C19.3399 3.34041 19.1606 3.06728 19.0417 2.76656L18.3723 1.07906C18.3584 1.04417 18.3344 1.01426 18.3033 0.993203C18.2722 0.972142 18.2355 0.960901 18.198 0.960938C18.1604 0.960901 18.1237 0.972142 18.0926 0.993203C18.0615 1.01426 18.0375 1.04417 18.0236 1.07906L17.3542 2.76656C17.2356 3.06745 17.0564 3.34073 16.8277 3.56942C16.599 3.79811 16.3257 3.97733 16.0248 4.09594L14.3373 4.76531C14.3024 4.77914 14.2724 4.80315 14.2512 4.83425C14.2301 4.86535 14.2188 4.90208 14.2188 4.93969C14.2188 4.97729 14.2301 5.01403 14.2512 5.04513C14.2724 5.07622 14.3024 5.10024 14.3373 5.11406L16.0248 5.78344C16.3257 5.90205 16.599 6.08126 16.8277 6.30996C17.0564 6.53865 17.2356 6.81193 17.3542 7.11281L18.0236 8.80031C18.0372 8.83555 18.0611 8.86586 18.0922 8.88727C18.1233 8.90869 18.1602 8.9202 18.198 8.92031C18.2357 8.9202 18.2726 8.90869 18.3037 8.88727C18.3348 8.86586 18.3587 8.83555 18.3723 8.80031L19.0417 7.11281C19.1606 6.8121 19.3399 6.53897 19.5686 6.31031C19.7972 6.08166 20.0704 5.90234 20.3711 5.78344Z" fill="#E20074"/>
</svg>
