<svg width="24" height="24" viewBox="0 0 24 24" fill="none" xmlns="http://www.w3.org/2000/svg">
<path d="M0 15.7251C0 15.8766 0.0798864 16.0155 0.210227 16.0913L6.51705 19.7328V12.2014L0 8.43359V15.7251Z" fill="#E20074"/>
<path d="M3.23051 6.07422L0.421875 7.69503L6.93892 11.467L9.74755 9.84205L3.23051 6.07422Z" fill="#E20074"/>
<path d="M13.4549 7.69837L7.14804 4.05683C7.0177 3.98106 6.85793 3.98106 6.72759 4.05683L4.07031 5.58922L10.5874 9.35703L13.4549 7.69837Z" fill="#E20074"/>
<path d="M7.35938 19.7328L13.6662 16.0913C13.7965 16.0155 13.8764 15.8766 13.8764 15.7251V8.43359L7.35938 12.2014V19.7328Z" fill="#E20074"/>
<path d="M20.5525 12.5007C21.0016 14.1808 23.4781 13.883 23.5 12.1252C23.5 11.2954 22.8288 10.6233 22 10.6233C21.3025 10.6233 20.7213 11.1039 20.5525 11.7498H19V4.24029C19 4.03378 19.1688 3.86481 19.375 3.86481H20.5525C20.7213 4.51062 21.3025 4.99124 22 4.99124C22.8288 4.99124 23.5 4.31912 23.5 3.48934C23.4784 1.73604 21.0037 1.42983 20.5525 3.11391C20.5525 3.11387 19.375 3.11387 19.375 3.11387C18.7562 3.11387 18.25 3.62075 18.25 4.24029V11.7498H16.375C16.1688 11.7498 16 11.9187 16 12.1252C16 12.3317 16.1688 12.5007 16.375 12.5007H18.25V20.0102C18.25 20.6297 18.7562 21.1366 19.375 21.1366H20.5525C20.9995 22.8125 23.4775 22.5229 23.5 20.7611C23.4752 18.9986 21.0017 18.7086 20.5525 20.3857C20.5525 20.3857 19.375 20.3857 19.375 20.3857C19.1687 20.3857 19 20.2167 19 20.0102V12.5007L20.5525 12.5007Z" fill="#E20074"/>
</svg>
