<svg width="36" height="37" viewBox="0 0 36 37" fill="none" xmlns="http://www.w3.org/2000/svg">
<path d="M12.6 25.4807L18 20.0807L23.4 25.4807L24.9807 23.9L19.5807 18.5L24.9807 13.1L23.4 11.5192L18 16.9192L12.6 11.5192L11.0192 13.1L16.4192 18.5L11.0192 23.9L12.6 25.4807ZM18.0025 32.7499C16.0316 32.7499 14.179 32.3759 12.4448 31.6279C10.7106 30.8799 9.20208 29.8648 7.91925 28.5826C6.6364 27.3003 5.62081 25.7924 4.87249 24.059C4.12416 22.3255 3.75 20.4734 3.75 18.5025C3.75 16.5316 4.124 14.679 4.872 12.9448C5.62 11.2106 6.63513 9.70208 7.91738 8.41925C9.19965 7.1364 10.7075 6.12081 12.441 5.37249C14.1744 4.62416 16.0266 4.25 17.9975 4.25C19.9684 4.25 21.8209 4.624 23.5551 5.372C25.2893 6.12 26.7979 7.13513 28.0807 8.41738C29.3635 9.69965 30.3791 11.2075 31.1274 12.941C31.8758 14.6744 32.2499 16.5266 32.2499 18.4975C32.2499 20.4684 31.8759 22.3209 31.1279 24.0551C30.3799 25.7893 29.3648 27.2979 28.0826 28.5807C26.8003 29.8635 25.2924 30.8791 23.559 31.6274C21.8255 32.3758 19.9734 32.7499 18.0025 32.7499ZM18 30.5C21.35 30.5 24.1875 29.3375 26.5125 27.0125C28.8375 24.6875 30 21.85 30 18.5C30 15.15 28.8375 12.3125 26.5125 9.98746C24.1875 7.66246 21.35 6.49996 18 6.49996C14.65 6.49996 11.8125 7.66246 9.48746 9.98746C7.16246 12.3125 5.99996 15.15 5.99996 18.5C5.99996 21.85 7.16246 24.6875 9.48746 27.0125C11.8125 29.3375 14.65 30.5 18 30.5Z" fill="#A7005A"/>
</svg>
