<svg width="24" height="24" viewBox="0 0 24 24" fill="none" xmlns="http://www.w3.org/2000/svg">
<g clip-path="url(#clip0_550_13201)">
<path d="M20.8594 6.30469L21.886 4.98281L19.0172 2.11402L17.6953 3.14062C16.6406 2.46558 15.4594 1.97344 14.236 1.70625L14.025 0H9.975L9.76402 1.70625C8.54058 1.97344 7.35938 2.46558 6.30469 3.14062L4.98281 2.11402L2.11402 4.98281L3.14062 6.30469C2.46558 7.35938 1.97344 8.54058 1.70625 9.76402L0 9.975V14.025L1.70625 14.2359C1.97344 15.4593 2.46558 16.6406 3.14062 17.6953L2.11402 19.0172L4.98281 21.8859L6.30469 20.8594C7.35938 21.5343 8.54058 22.0266 9.76402 22.2938L9.975 24H14.025L14.236 22.2938C15.4594 22.0266 16.6406 21.5343 17.6953 20.8594L19.0172 21.8859L21.886 19.0172L20.8594 17.6953C21.5344 16.6406 22.0266 15.4593 22.2938 14.2359L24 14.025V9.975L22.2938 9.76402C22.0266 8.54058 21.5344 7.35938 20.8594 6.30469ZM12 19.7344C7.73902 19.7344 4.26562 16.2609 4.26562 12C4.26562 7.73902 7.73902 4.26562 12 4.26562C16.261 4.26562 19.7344 7.73902 19.7344 12C19.7344 16.2609 16.261 19.7344 12 19.7344Z" fill="#E20074"/>
<path d="M12 5.67188C8.51255 5.67188 5.67188 8.51245 5.67188 12C5.67188 15.4875 8.51255 18.3281 12 18.3281C15.4875 18.3281 18.3281 15.4875 18.3281 12C18.3281 8.51245 15.4875 5.67188 12 5.67188ZM11.2969 14.4046L8.69536 11.789L9.67969 10.8046L11.2969 12.4078L14.3204 9.39839L15.3047 10.3828L11.2969 14.4046Z" fill="#E20074"/>
</g>
<defs>
<clipPath id="clip0_550_13201">
<rect width="24" height="24" fill="white"/>
</clipPath>
</defs>
</svg>
