<svg width="24" height="24" viewBox="0 0 24 24" fill="none" xmlns="http://www.w3.org/2000/svg">
<path d="M21.8012 19.77L21.8002 19.7875C21.7312 20.9308 20.9587 21.9076 19.8646 22.2466C17.475 22.9869 14.8102 23.3997 12.0003 23.3997C9.19114 23.3997 6.52712 22.9864 4.13731 22.2467C3.04289 21.908 2.27035 20.9306 2.20225 19.7869L2.19947 19.7403C2.17245 19.3595 2.15625 18.976 2.15625 18.5952C2.15625 17.7336 2.22647 16.8748 2.3561 16.0133C2.48034 15.2355 3.03939 14.5522 3.78479 14.274C4.5923 13.9635 5.42951 13.6826 6.17761 13.2478L7.97898 12.2539C8.38139 12.2539 8.72438 12.5321 8.81621 12.9048L10.8112 17.2851C10.8776 17.431 11.0943 17.3952 11.1103 17.2356L11.363 14.7089C11.0227 14.5846 10.7742 14.274 10.7742 13.9013V13.4962C10.7742 13.2775 10.8363 13.1235 10.9606 12.9669C11.3009 13.0614 11.6736 13.1235 12.0166 13.1235C12.3568 13.1235 12.7295 13.0614 13.0725 12.9669C13.1968 13.1235 13.2589 13.3099 13.2589 13.4962V13.9013C13.2589 14.274 13.0104 14.5846 12.6674 14.7089L12.9201 17.2356C12.9361 17.3952 13.1527 17.431 13.2192 17.2851L15.2142 12.9048C15.3087 12.5321 15.649 12.2539 16.0541 12.2539L17.8555 13.2478C18.6009 13.6826 19.4408 13.9635 20.2483 14.274C20.9937 14.5522 21.5204 15.2355 21.6446 16.043C21.8309 17.2853 21.8931 18.5277 21.8012 19.77Z" fill="#E20074"/>
<path d="M7.76829 6.99516C7.89263 7.12906 7.97524 7.29628 8.00575 7.47644C8.45695 10.1407 10.3953 11.6275 12.0187 11.6275C13.6463 11.6275 15.5903 10.1332 16.0351 7.48228C16.0631 7.31572 16.133 7.15706 16.2465 7.03198C16.3943 6.869 16.4618 6.47199 16.4618 6.04024C16.4618 5.53501 16.5772 4.82174 16.3464 4.6137C16.2598 4.55426 16.1733 4.55426 16.029 4.58398C15.6539 2.14698 14.4422 0.601562 12.0187 0.601562C9.59528 0.601562 8.38355 2.14698 8.00849 4.58398C7.86423 4.52454 7.74883 4.55426 7.69113 4.6137C7.46032 4.82174 7.57573 5.50529 7.57573 6.04024C7.554 6.44309 7.61408 6.82909 7.76829 6.99516Z" fill="#E20074"/>
</svg>
