<svg width="14" height="15" viewBox="0 0 14 15" fill="none" xmlns="http://www.w3.org/2000/svg">
<g clip-path="url(#clip0_762_11909)">
<path d="M12.4485 6.78226C12.6241 7.0284 12.7119 7.15204 12.7119 7.33405C12.7119 7.51663 12.6241 7.63969 12.4485 7.88583C11.6592 8.99287 9.64333 11.3785 6.9341 11.3785C4.22429 11.3785 2.20897 8.99229 1.41972 7.88583C1.24407 7.63969 1.15625 7.51605 1.15625 7.33405C1.15625 7.15147 1.24407 7.0284 1.41972 6.78226C2.20897 5.67522 4.22487 3.28955 6.9341 3.28955C9.64391 3.28955 11.6592 5.6758 12.4485 6.78226Z" stroke="#414141" stroke-width="0.866677" stroke-linecap="round" stroke-linejoin="round"/>
<path d="M8.66983 7.33394C8.66983 6.87423 8.48721 6.43334 8.16215 6.10827C7.83708 5.78321 7.39619 5.60059 6.93648 5.60059C6.47677 5.60059 6.03588 5.78321 5.71081 6.10827C5.38575 6.43334 5.20312 6.87423 5.20312 7.33394C5.20312 7.79366 5.38575 8.23454 5.71081 8.55961C6.03588 8.88468 6.47677 9.0673 6.93648 9.0673C7.39619 9.0673 7.83708 8.88468 8.16215 8.55961C8.48721 8.23454 8.66983 7.79366 8.66983 7.33394Z" stroke="#414141" stroke-width="0.866677" stroke-linecap="round" stroke-linejoin="round"/>
</g>
<defs>
<clipPath id="clip0_762_11909">
<rect width="13.8668" height="13.8668" fill="white" transform="translate(0 0.400391)"/>
</clipPath>
</defs>
</svg>
