<svg width="24" height="24" viewBox="0 0 24 24" fill="none" xmlns="http://www.w3.org/2000/svg">
<g clip-path="url(#clip0_550_12992)">
<path d="M16.9136 6.29811C15.6431 5.89048 14.9059 4.43323 15.3176 3.14323C15.753 1.77861 17.1506 1.06198 18.5239 1.49886C19.8656 1.92561 20.5736 3.31948 20.1405 4.67998C19.7134 6.02248 18.2854 6.73836 16.9136 6.29811Z" fill="#E20074"/>
<path d="M13.7935 12.3704C13.8306 12.3528 13.8673 12.3311 13.9037 12.3074C13.9112 12.2373 13.9251 12.1668 13.9472 12.0967C14.0796 11.6789 14.425 11.4554 14.8791 11.4228C14.9788 11.4153 15.0797 11.4089 15.1802 11.3999C15.5256 11.3733 15.8732 11.3339 16.1965 11.2312C16.7616 11.0516 17.2675 10.7362 17.6766 10.3124C17.7298 10.2569 17.7816 10.1999 17.8318 10.1407C17.9308 10.0241 18.0321 9.90105 18.1281 9.77168C18.3602 9.4593 18.4911 9.08843 18.565 8.70893C18.6467 8.28855 18.436 7.84868 18.5875 7.43918C18.7063 7.11743 19.024 6.86018 19.3416 6.75143C19.9858 6.5313 20.7186 6.84218 21.133 7.35105C22.009 8.42693 22.6315 9.68355 23.1167 10.9769C23.509 12.0221 23.7842 13.1133 23.869 14.2282C23.9507 15.3052 23.9496 16.5228 23.428 17.4986C23.0447 18.2156 22.4245 18.3472 21.6628 18.4293C21.6216 18.5324 21.6111 18.6588 21.6092 18.7706C21.6025 19.1677 21.6025 19.5656 21.601 19.9631C21.5995 20.4689 21.5965 20.9756 21.5773 21.4814C21.5605 21.9333 21.4791 22.5258 21.2245 22.9668C21.0572 23.2567 20.8161 23.4809 20.47 23.5586C18.589 23.9786 18.7858 20.4896 18.7746 19.5029C18.7708 19.2419 18.7671 18.9806 18.7607 18.7203C18.7585 18.6251 18.7517 18.5186 18.7243 18.4252C18.2507 18.3903 17.9068 18.3333 17.665 18.2609C17.5015 18.2381 17.338 18.2152 17.1846 18.1923C16.9078 18.1518 16.7556 17.8522 16.8805 17.6013C17.4137 16.5296 17.7786 15.3041 18.0085 14.2736C18.1461 13.6619 18.2357 13.1197 18.2867 12.7188C18.2372 12.6472 18.2267 12.5658 18.1588 12.6183C17.6098 13.0421 16.9401 13.2307 16.2595 13.3046C15.667 13.3687 14.8427 13.5104 14.3102 13.1827C14.2045 13.1174 14.1186 13.0327 14.053 12.9363C13.9693 12.9258 13.9052 12.9933 13.8407 13.1066C13.7083 13.3387 13.792 13.6147 13.9198 13.8292C14.0346 14.0208 14.2873 14.1701 14.2873 14.4112V21.8478C14.2873 22.0518 14.1388 22.2341 13.9352 22.2532C13.7031 22.2761 13.507 22.0934 13.507 21.8654C13.507 21.8654 13.498 18.1994 13.5062 16.4984C13.5107 15.5628 13.4878 14.6396 13.1815 13.7336C12.9703 13.1096 13.2373 12.6389 13.7935 12.3704Z" fill="#E20074"/>
<path d="M8.6868 3.06742C8.25142 1.70279 6.8538 0.986167 5.48055 1.42304C5.3793 1.45529 5.28217 1.49354 5.18805 1.53667C5.18505 1.52617 5.18317 1.51567 5.1798 1.50554C4.9098 0.659167 4.0428 0.214417 3.1908 0.485542C2.35905 0.749917 1.91955 1.61467 2.18805 2.45842C2.4078 3.14767 3.05242 3.57029 3.7503 3.54067C3.71542 3.88529 3.74955 4.24567 3.86355 4.60417C4.29105 5.94667 5.71867 6.66254 7.09042 6.22229C8.3613 5.81429 9.09855 4.35704 8.6868 3.06742Z" fill="#E20074"/>
<path d="M10.2088 12.2962C10.1717 12.2786 10.1349 12.2568 10.0986 12.2332C10.0911 12.1631 10.0772 12.0926 10.0551 12.0225C9.9227 11.6047 9.57732 11.3812 9.1232 11.3486C9.02345 11.3411 8.92257 11.3347 8.82207 11.3257C8.4767 11.2991 8.12908 11.2597 7.80582 11.157C7.2407 10.9773 6.73483 10.662 6.3257 10.2382C6.27245 10.1827 6.2207 10.1257 6.17045 10.0665C6.07145 9.94983 5.9702 9.82683 5.8742 9.69746C5.64208 9.38508 5.5112 9.01421 5.43733 8.63471C5.35558 8.21433 5.56633 7.77446 5.41482 7.36496C5.29595 7.04321 4.97832 6.78596 4.6607 6.67721C4.01645 6.45708 3.2837 6.76796 2.86932 7.27683C1.99332 8.35271 1.37082 9.60933 0.885575 10.9027C0.493325 11.9478 0.218075 13.0391 0.133325 14.154C0.0515749 15.231 0.0526999 16.4486 0.574325 17.4243C0.957575 18.1413 1.57782 18.273 2.33945 18.3551C2.3807 18.4582 2.3912 18.5846 2.39307 18.6963C2.39982 19.0935 2.39982 19.4913 2.40132 19.8888C2.40282 20.3947 2.40582 20.9013 2.42495 21.4072C2.44182 21.8591 2.5232 22.4516 2.77782 22.8926C2.94508 23.1825 3.1862 23.4067 3.53232 23.4843C5.41332 23.9043 5.21645 20.4153 5.2277 19.4287C5.23145 19.1677 5.2352 18.9063 5.24158 18.6461C5.24382 18.5508 5.25058 18.4443 5.27795 18.351C5.75157 18.3161 6.09545 18.2591 6.33732 18.1867C6.50082 18.1638 6.66432 18.141 6.8177 18.1181C7.09445 18.0776 7.2467 17.778 7.12183 17.5271C6.58857 16.4553 6.2237 15.2298 5.99382 14.1993C5.8562 13.5877 5.76657 13.0455 5.71558 12.6446C5.76508 12.573 5.77557 12.4916 5.84345 12.5441C6.39245 12.9678 7.0622 13.1565 7.74283 13.2303C8.33533 13.2945 9.15958 13.4362 9.69207 13.1085C9.79782 13.0432 9.8837 12.9585 9.94932 12.8621C10.0329 12.8516 10.0971 12.9191 10.1616 13.0323C10.2939 13.2645 10.2103 13.5405 10.0824 13.755C9.9677 13.9466 9.71495 14.0958 9.71495 14.337V21.7736C9.71495 21.9776 9.86345 22.1598 10.0671 22.179C10.2992 22.2018 10.4953 22.0192 10.4953 21.7912C10.4953 21.7912 10.5043 18.1252 10.4961 16.4242C10.4916 15.4886 10.5145 14.5653 10.8208 13.6593C11.0319 13.0353 10.7649 12.5647 10.2088 12.2962Z" fill="#E20074"/>
</g>
<defs>
<clipPath id="clip0_550_12992">
<rect width="24" height="24" fill="white"/>
</clipPath>
</defs>
</svg>
