<svg width="24" height="24" viewBox="0 0 24 24" fill="none" xmlns="http://www.w3.org/2000/svg">
<g clip-path="url(#clip0_330_11152)">
<path d="M5.60004 7.48132C7.66272 7.48132 9.3407 5.80316 9.3407 3.74066C9.3407 1.67798 7.66254 0 5.60004 0C3.53754 0 1.85938 1.67798 1.85938 3.74066C1.85938 5.80316 3.53735 7.48132 5.60004 7.48132Z" fill="#E20074"/>
<path d="M11.9992 17.4562C9.53552 17.4562 7.53125 19.4606 7.53125 21.9243V23.2969C7.53125 23.6852 7.84601 24 8.23438 24H15.7655C16.1539 24 16.4686 23.6852 16.4686 23.2969V21.925C16.4686 19.461 14.464 17.4562 11.9992 17.4562Z" fill="#E20074"/>
<path d="M6.12506 21.9243C6.12506 19.6269 7.45093 17.6336 9.37756 16.6686C8.08447 15.8143 7.22974 14.3481 7.22974 12.6859C7.22974 11.5166 7.65289 10.4445 8.35364 9.61395C7.53973 9.15179 6.59949 8.88739 5.59845 8.88739C2.51147 8.88757 0 11.3989 0 14.4858V23.2969C0 23.6852 0.314758 24 0.703125 24H6.24591C6.16791 23.7799 6.12506 23.5433 6.12506 23.2969V21.9243Z" fill="#E20074"/>
<path d="M11.9968 16.0499C13.8519 16.0499 15.3608 14.5408 15.3608 12.6859C15.3608 10.8311 13.8519 9.3219 11.9968 9.3219C10.1418 9.3219 8.63281 10.8311 8.63281 12.6859C8.63281 14.541 10.1418 16.0499 11.9968 16.0499Z" fill="#E20074"/>
<path d="M18.4047 7.48132C20.4672 7.48132 22.1454 5.80316 22.1454 3.74066C22.1454 1.67798 20.4674 0 18.4047 0C16.342 0 14.6641 1.67798 14.6641 3.74066C14.6641 5.80316 16.3422 7.48132 18.4047 7.48132Z" fill="#E20074"/>
<path d="M18.4041 8.88757C17.4033 8.88757 16.4628 9.15179 15.6489 9.61395C16.3497 10.4445 16.7728 11.5166 16.7728 12.6859C16.7728 14.3483 15.9181 15.8145 14.625 16.6686C16.5516 17.6336 17.8775 19.6269 17.8775 21.9243V23.2969C17.8775 23.5433 17.8347 23.7799 17.7567 24H23.2994C23.6878 24 24.0026 23.6852 24.0026 23.2969V14.4858C24.0026 11.3989 21.4911 8.88757 18.4041 8.88757Z" fill="#E20074"/>
</g>
<defs>
<clipPath id="clip0_330_11152">
<rect width="24" height="24" fill="white"/>
</clipPath>
</defs>
</svg>
