<svg width="24" height="20" viewBox="0 0 24 20" fill="none" xmlns="http://www.w3.org/2000/svg">
<path d="M22.8009 18.7144H6.75223C6.09079 18.7144 5.55469 18.1783 5.55469 17.5169C5.55469 16.8554 6.09079 16.3193 6.75223 16.3193H22.8005C23.462 16.3193 23.9981 16.8554 23.9981 17.5169C23.9981 18.1783 23.4624 18.7144 22.8009 18.7144Z" fill="#A7005A"/>
<path d="M22.8009 11.1973H6.75223C6.09079 11.1973 5.55469 10.6612 5.55469 9.99979C5.55469 9.33835 6.09079 8.80225 6.75223 8.80225H22.8005C23.462 8.80225 23.9981 9.33835 23.9981 9.99979C23.9985 10.6612 23.4624 11.1973 22.8009 11.1973Z" fill="#A7005A"/>
<path d="M22.8009 3.68073H6.75223C6.09079 3.68073 5.55469 3.14463 5.55469 2.48319C5.55469 1.82175 6.09079 1.28564 6.75223 1.28564H22.8005C23.462 1.28564 23.9981 1.82175 23.9981 2.48319C23.9981 3.14463 23.4624 3.68073 22.8009 3.68073Z" fill="#A7005A"/>
<path d="M1.6083 4.18389C2.49654 4.18389 3.21661 3.46383 3.21661 2.57559C3.21661 1.68735 2.49654 0.967285 1.6083 0.967285C0.720062 0.967285 0 1.68735 0 2.57559C0 3.46383 0.720062 4.18389 1.6083 4.18389Z" fill="#A7005A"/>
<path d="M1.6083 11.6082C2.49654 11.6082 3.21661 10.8881 3.21661 9.9999C3.21661 9.11166 2.49654 8.3916 1.6083 8.3916C0.720062 8.3916 0 9.11166 0 9.9999C0 10.8881 0.720062 11.6082 1.6083 11.6082Z" fill="#A7005A"/>
<path d="M1.6083 19.0325C2.49654 19.0325 3.21661 18.3125 3.21661 17.4242C3.21661 16.536 2.49654 15.8159 1.6083 15.8159C0.720062 15.8159 0 16.536 0 17.4242C0 18.3125 0.720062 19.0325 1.6083 19.0325Z" fill="#A7005A"/>
</svg>
