<svg width="20" height="20" viewBox="0 0 20 20" fill="none" xmlns="http://www.w3.org/2000/svg">
<path d="M5.83594 1.66797C5.1729 1.66797 4.53701 1.93136 4.06817 2.4002C3.59933 2.86904 3.33594 3.50493 3.33594 4.16797V15.8346C3.33594 16.4977 3.59933 17.1336 4.06817 17.6024C4.53701 18.0712 5.1729 18.3346 5.83594 18.3346H14.1693C14.8323 18.3346 15.4682 18.0712 15.937 17.6024C16.4059 17.1336 16.6693 16.4977 16.6693 15.8346V15.0013C16.6693 14.5411 16.2962 14.168 15.8359 14.168C15.3757 14.168 15.0026 14.5411 15.0026 15.0013V15.8346C15.0026 16.0556 14.9148 16.2676 14.7585 16.4239C14.6022 16.5802 14.3903 16.668 14.1693 16.668H5.83594C5.61492 16.668 5.40296 16.5802 5.24668 16.4239C5.0904 16.2676 5.0026 16.0556 5.0026 15.8346V4.16797C5.0026 3.94695 5.0904 3.73499 5.24668 3.57871C5.40296 3.42243 5.61492 3.33464 5.83594 3.33464H14.1693C14.3903 3.33464 14.6022 3.42243 14.7585 3.57871C14.9148 3.73499 15.0026 3.94696 15.0026 4.16797V5.0013C15.0026 5.46154 15.3757 5.83464 15.8359 5.83464C16.2962 5.83464 16.6693 5.46154 16.6693 5.0013V4.16797C16.6693 3.50493 16.4059 2.86904 15.937 2.4002C15.4682 1.93136 14.8323 1.66797 14.1693 1.66797H5.83594Z" fill="#E20074"/>
<path d="M13.9252 6.91205C13.5998 6.58661 13.0721 6.58661 12.7467 6.91205C12.4212 7.23748 12.4212 7.76512 12.7467 8.09056L13.8241 9.16797H10.0026C9.54237 9.16797 9.16927 9.54106 9.16927 10.0013C9.16927 10.4615 9.54237 10.8346 10.0026 10.8346H13.8241L12.7467 11.912C12.4212 12.2375 12.4212 12.7651 12.7467 13.0906C13.0721 13.416 13.5998 13.416 13.9252 13.0906L16.4252 10.5906C16.7506 10.2651 16.7506 9.73748 16.4252 9.41205L13.9252 6.91205Z" fill="#E20074"/>
</svg>
