<svg width="25" height="24" viewBox="0 0 25 24" fill="none" xmlns="http://www.w3.org/2000/svg">
<path d="M12 12.2439C15.0376 12.2439 17.5 9.78146 17.5 6.7439C17.5 3.70633 15.0376 1.2439 12 1.2439C8.96243 1.2439 6.5 3.70633 6.5 6.7439C6.5 9.78146 8.96243 12.2439 12 12.2439Z" fill="#E20074"/>
<path fill-rule="evenodd" clip-rule="evenodd" d="M13.425 21.756C12.386 20.64 11.75 19.144 11.75 17.5C11.75 15.817 12.417 14.288 13.501 13.164C13.011 13.126 12.51 13.106 12 13.106C8.678 13.106 5.737 13.937 3.911 15.182C2.518 16.132 1.75 17.339 1.75 18.606V20.056C1.75 20.507 1.929 20.94 2.248 21.258C2.567 21.577 2.999 21.756 3.45 21.756H13.425Z" fill="#E20074"/>
<path fill-rule="evenodd" clip-rule="evenodd" d="M17.75 12C14.852 12 12.5 14.352 12.5 17.25C12.5 20.148 14.852 22.5 17.75 22.5C20.648 22.5 23 20.148 23 17.25C23 14.352 20.648 12 17.75 12Z" fill="#E20074"/>
<path d="M20.375 17.6875H18.1875V19.875C18.1875 20.1156 17.9906 20.3125 17.75 20.3125C17.5094 20.3125 17.3125 20.1156 17.3125 19.875V17.6875H15.125C14.8844 17.6875 14.6875 17.4906 14.6875 17.25C14.6875 17.0094 14.8844 16.8125 15.125 16.8125H17.3125V14.625C17.3125 14.3844 17.5094 14.1875 17.75 14.1875C17.9906 14.1875 18.1875 14.3844 18.1875 14.625V16.8125H20.375C20.6156 16.8125 20.8125 17.0094 20.8125 17.25C20.8125 17.4906 20.6156 17.6875 20.375 17.6875Z" fill="#F5F5F5"/>
</svg>
