<svg width="24" height="24" viewBox="0 0 24 24" fill="none" xmlns="http://www.w3.org/2000/svg">
<path d="M7.9282 14.8H8.56638C8.60142 12.9359 10.1308 11.4299 12.0026 11.4299C13.8782 11.4299 15.4076 12.9359 15.4426 14.8H16.0808C16.2987 14.8 16.47 14.6287 16.47 14.4108V12.1849C16.47 10.5621 15.1508 9.24292 13.528 9.24292C13.4307 9.24292 13.3334 9.28186 13.2595 9.3519L12.0026 10.5583L10.7495 9.3519C10.6756 9.28186 10.5783 9.24292 10.4771 9.24292C8.85825 9.24292 7.53906 10.5621 7.53906 12.1849V14.4108C7.53906 14.6287 7.71025 14.8 7.9282 14.8Z" fill="#E20074"/>
<path d="M14.361 6.7252C14.361 5.42935 13.3025 4.37085 12.0028 4.37085C10.7069 4.37085 9.64844 5.42935 9.64844 6.7252C9.64844 8.02495 10.7069 9.07954 12.0028 9.07954C13.3025 9.07954 14.361 8.02495 14.361 6.7252Z" fill="#E20074"/>
<path d="M17.1735 14.7998H21.3373C21.5553 14.7998 21.7265 14.6286 21.7265 14.4107V12.5544C21.7265 11.1691 20.6019 10.0405 19.2126 10.0405C19.1153 10.0405 19.018 10.0794 18.9441 10.1495L17.9401 11.1107L16.9439 10.1495C16.8699 10.0794 16.7727 10.0405 16.6715 10.0405C16.6364 10.0405 16.5975 10.0405 16.5625 10.0444C16.9945 10.6515 17.2435 11.387 17.2435 12.1847V14.4107C17.2435 14.5469 17.2202 14.6792 17.1735 14.7998Z" fill="#E20074"/>
<path d="M2.6626 14.7998H6.83037C6.78367 14.6792 6.76033 14.5469 6.76033 14.4107V12.1847C6.76033 11.387 7.00935 10.6515 7.44133 10.0444C7.4063 10.0405 7.36738 10.0405 7.33235 10.0405C7.23118 10.0405 7.13389 10.0794 7.05994 10.1495L6.06372 11.1107L5.05972 10.1495C4.98579 10.0794 4.8885 10.0405 4.79121 10.0405C3.40198 10.0405 2.27344 11.1691 2.27344 12.5544V14.4107C2.27344 14.6286 2.44856 14.7998 2.6626 14.7998Z" fill="#E20074"/>
<path d="M6.05481 5.9856C4.93796 5.9856 4.03125 6.89231 4.03125 8.01306C4.03125 9.12991 4.93796 10.0366 6.05481 10.0366C7.17166 10.0366 8.08228 9.12991 8.08228 8.01306C8.08228 6.89231 7.17166 5.9856 6.05481 5.9856Z" fill="#E20074"/>
<path d="M17.9493 10.0366C19.0662 10.0366 19.9729 9.12991 19.9729 8.01306C19.9729 6.89231 19.0662 5.9856 17.9493 5.9856C16.8324 5.9856 15.9219 6.89231 15.9219 8.01306C15.9219 9.12991 16.8324 10.0366 17.9493 10.0366Z" fill="#E20074"/>
<path d="M12.0028 17.5254C12.5957 17.5254 13.142 17.3279 13.5848 16.9986L16.1014 19.5152C16.1774 19.5912 16.277 19.6292 16.3765 19.6292C16.4761 19.6292 16.5757 19.5912 16.6517 19.5152C16.8037 19.3632 16.8037 19.1169 16.6517 18.9649L14.135 16.4483C14.4644 16.0056 14.6618 15.4592 14.6618 14.8663C14.6618 13.4002 13.4689 12.2073 12.0028 12.2073C10.5367 12.2073 9.34375 13.4002 9.34375 14.8663C9.34375 16.3325 10.5367 17.5254 12.0028 17.5254ZM12.0028 12.9856C13.0399 12.9856 13.8835 13.8292 13.8835 14.8663C13.8835 15.9034 13.0399 16.7471 12.0028 16.7471C10.9657 16.7471 10.122 15.9034 10.122 14.8663C10.122 13.8292 10.9657 12.9856 12.0028 12.9856Z" fill="#E20074"/>
</svg>
