<svg width="24" height="24" viewBox="0 0 24 24" fill="none" xmlns="http://www.w3.org/2000/svg">
<g clip-path="url(#clip0_550_13244)">
<path d="M9.84356 0C4.41577 0 0 4.41572 0 9.84356C0 15.2714 4.41572 19.6871 9.84356 19.6871C15.2714 19.6871 19.6871 15.2714 19.6871 9.84356C19.6871 4.41572 15.2714 0 9.84356 0ZM9.84356 16.8747C5.96686 16.8747 2.81245 13.7203 2.81245 9.84356C2.81245 5.96686 5.96686 2.81245 9.84356 2.81245C13.7203 2.81245 16.8747 5.96686 16.8747 9.84356C16.8747 13.7203 13.7203 16.8747 9.84356 16.8747Z" fill="#E20074"/>
<path d="M23.3837 20.397L19.1468 16.1602C18.3485 17.3315 17.3354 18.3446 16.1641 19.1429L20.4009 23.3798C21.226 24.2048 22.5595 24.2039 23.3837 23.3798C24.2087 22.5548 24.2077 21.2212 23.3837 20.397Z" fill="#E20074"/>
<path d="M9.8437 6.32812C8.29261 6.32812 7.03125 7.58944 7.03125 9.14058C7.03125 10.6917 8.29256 11.953 9.8437 11.953C11.3948 11.953 12.6562 10.6917 12.6562 9.14058C12.6562 7.58948 11.3948 6.32812 9.8437 6.32812Z" fill="#E20074"/>
<path d="M13.9081 13.5982C13.725 12.9747 13.3891 12.4238 12.9622 11.957C12.1896 12.8116 11.0842 13.3592 9.84409 13.3592C8.60838 13.3592 7.50602 12.8157 6.7338 11.9664C6.29486 12.47 5.98577 13.0833 5.80469 13.7418C6.82839 14.8023 8.25737 15.4685 9.84405 15.4685C11.455 15.4685 12.9 14.7787 13.9264 13.6896C13.9191 13.6599 13.916 13.6277 13.9081 13.5982Z" fill="#E20074"/>
</g>
<defs>
<clipPath id="clip0_550_13244">
<rect width="24" height="24" fill="white"/>
</clipPath>
</defs>
</svg>
