<svg width="18" height="20" viewBox="0 0 18 20" fill="none" xmlns="http://www.w3.org/2000/svg">
<g clip-path="url(#clip0_864_7280)">
<path d="M13.1484 9.19922V13.2492H17.1984V9.19922H15.0984H13.1484Z" fill="#E20074"/>
<path d="M0.996875 0L0.796875 7.06L1.85687 7.24C2.05687 5.16 2.59688 3.62 3.49688 2.61C4.43688 1.56 5.73688 1.01 7.39687 0.96V15.72C7.39687 17.01 7.21688 17.85 6.83687 18.23C6.51687 18.56 5.97688 18.76 5.21688 18.84C4.98688 18.86 4.60687 18.87 4.05687 18.87V20H13.9269V18.87C13.3769 18.87 12.9969 18.87 12.7669 18.84C12.0069 18.77 11.4669 18.56 11.1469 18.23C10.7669 17.84 10.5869 17.01 10.5869 15.72V0.96C12.2569 1.01 13.5469 1.56 14.4869 2.61C15.3769 3.62 15.9269 5.16 16.1269 7.24L17.1869 7.06L16.9869 0L0.996875 0Z" fill="#E20074"/>
<path d="M4.84688 9.19922H2.84687H0.796875V13.2492H4.84688V9.19922Z" fill="#E20074"/>
</g>
<defs>
<clipPath id="clip0_864_7280">
<rect width="16.4" height="20" fill="white" transform="translate(0.796875)"/>
</clipPath>
</defs>
</svg>
