<svg width="25" height="24" viewBox="0 0 25 24" fill="none" xmlns="http://www.w3.org/2000/svg">
<path d="M22.2638 20.4592C22.2662 20.3985 22.2676 20.3385 22.2676 20.2806V20.2801C22.2626 18.0174 20.5408 17.6238 18.5565 17.1707C18.2757 17.1059 17.9922 17.0425 17.7105 16.9708C17.5994 16.942 17.4767 16.9132 17.3476 16.8825C16.9394 16.7862 16.4858 16.6787 16.0878 16.5333C15.6071 16.3573 15.2085 16.1267 15.0726 15.7917C14.9908 15.592 14.9457 15.1775 15.0138 14.8549C15.0172 14.8386 15.0254 14.8213 15.0306 14.8048C14.9001 14.8461 14.7647 14.8742 14.6231 14.8742H13.66C12.9066 14.8742 12.2937 14.2612 12.2937 13.5078C12.2937 12.7547 12.9066 12.1422 13.66 12.1422H14.6231C14.9387 12.1422 15.239 12.2507 15.4782 12.4434C15.7329 12.4098 15.9777 12.3577 16.2162 12.2965C16.221 12.2711 16.2258 12.2449 16.2306 12.2197C16.2525 12.0985 16.2734 11.9812 16.3048 11.8725C16.6192 11.7342 16.9533 11.2223 17.1256 10.5616C17.3102 9.85815 17.2521 9.21159 17.0099 8.96727C17.1364 7.71375 16.865 6.36903 16.2141 5.54679C15.537 4.69335 14.2554 3.91863 12.9935 3.83175C12.8286 3.82047 12.6654 3.81639 12.5037 3.81855C12.3419 3.81639 12.1787 3.82047 12.0138 3.83199C10.7522 3.91863 9.47032 4.69335 8.79328 5.54679C8.1424 6.36903 7.8712 7.71375 7.99768 8.96799C7.75504 9.21183 7.69768 9.85815 7.88152 10.5621C8.05384 11.2228 8.3884 11.7342 8.70256 11.8729C8.73424 11.9819 8.75512 12.099 8.77696 12.22C8.79976 12.3486 8.82328 12.4823 8.86096 12.6049C9.01336 13.1125 9.22216 13.5719 9.5368 14.0963C9.58624 14.1779 9.64816 14.2672 9.7108 14.3543C9.8464 14.5441 9.96256 14.7093 9.99376 14.8561C10.0617 15.1785 10.0163 15.5927 9.93496 15.7924C9.7984 16.1274 9.39976 16.3583 8.91928 16.5345C8.52112 16.6804 8.06824 16.7877 7.65928 16.8839C7.5304 16.9146 7.40776 16.9427 7.29664 16.9715C7.01536 17.0433 6.73168 17.1071 6.45088 17.1722C4.4656 17.6245 2.74384 18.0172 2.73952 20.2806C2.73952 20.338 2.74144 20.3977 2.74336 20.4582C2.7328 20.5005 2.72656 20.5422 2.72656 20.585C2.72656 21.8085 7.10368 22.7999 12.5032 22.7999C17.9027 22.7999 22.2798 21.8085 22.2798 20.585C22.2798 20.5429 22.2743 20.5009 22.2638 20.4592Z" fill="#E20074"/>
<path d="M18.7067 8.19883C18.308 8.39755 18.0337 8.80747 18.0337 9.28195V11.7016C18.0337 11.861 18.0651 12.011 18.1201 12.1504C17.4145 12.6559 16.3878 13.0159 15.2315 13.1145C15.1016 12.916 14.8782 12.7833 14.6228 12.7833H13.6597C13.2584 12.7833 12.9344 13.1078 12.9344 13.5081C12.9344 13.9087 13.2587 14.2336 13.6597 14.2336H14.6228C14.9034 14.2336 15.1424 14.0731 15.2631 13.8417C16.6052 13.7364 17.7731 13.3262 18.5924 12.7207C18.7803 12.8416 19.0026 12.9132 19.2435 12.9132H19.304C19.9727 12.9132 20.5141 12.371 20.5141 11.7019V9.28195C20.5141 8.80003 20.2319 8.38507 19.8243 8.19139C19.6467 4.30699 16.431 1.19995 12.5031 1.19995C8.57531 1.19995 5.35955 4.30699 5.18315 8.19139C4.77515 8.38507 4.49219 8.80003 4.49219 9.28195V11.7016C4.49219 12.371 5.03411 12.9129 5.70227 12.9129H5.76299C6.43115 12.9129 6.97307 12.3708 6.97307 11.7016V9.28195C6.97307 8.80747 6.69899 8.39755 6.30011 8.19883C6.47243 4.92715 9.18851 2.31739 12.5031 2.31739C15.8178 2.31739 18.5341 4.92715 18.7067 8.19883Z" fill="#E20074"/>
</svg>
